PathFileType	4	(X/Y/Z)	Kaydara																																																																																																																									
DataRate	CameraRate	NumFrames	NumMarkers	Units	OrigDataRate	OrigDataStartFrame	OrigNumFrames																																																																																																																					
30	30	9	41	mm	30	23	176																																																																																																																					
Frame#	Time	SALE_LFHD			SALE_RFHD			SALE_LBHD			SALE_RBHD			SALE_LFTShould			SALE_RFTShould			SALE_LRRShould			SALE_RRRShould			SALE_T10			SALE_STRN			SALE_TRUN			SALE_LSHO			SALE_LUPA			SALE_LELB			SALE_LFRM			SALE_LWRA			SALE_LWRB			SALE_LFIN			SALE_RSHO			SALE_RUPA			SALE_RELB			SALE_RFRM			SALE_RWRB			SALE_RFIN			SALE_LFWT			SALE_RFWT			SALE_LBWT			SALE_RBWT			SALE_LTHI			SALE_LKNE			SALE_RWRA			SALE_LSHN			SALE_LANK			SALE_LHEE			SALE_LTOE			SALE_RTHI			SALE_RKNE			SALE_RSHN			SALE_RANK			SALE_RHEE			SALE_RTOE		
		X1	Y1	Z1	X2	Y2	Z2	X3	Y3	Z3	X4	Y4	Z4	X5	Y5	Z5	X6	Y6	Z6	X7	Y7	Z7	X8	Y8	Z8	X9	Y9	Z9	X10	Y10	Z10	X11	Y11	Z11	X12	Y12	Z12	X13	Y13	Z13	X14	Y14	Z14	X15	Y15	Z15	X16	Y16	Z16	X17	Y17	Z17	X18	Y18	Z18	X19	Y19	Z19	X20	Y20	Z20	X21	Y21	Z21	X22	Y22	Z22	X23	Y23	Z23	X24	Y24	Z24	X25	Y25	Z25	X26	Y26	Z26	X27	Y27	Z27	X28	Y28	Z28	X29	Y29	Z29	X30	Y30	Z30	X31	Y31	Z31	X32	Y32	Z32	X33	Y33	Z33	X34	Y34	Z34	X35	Y35	Z35	X36	Y36	Z36	X37	Y37	Z37	X38	Y38	Z38	X39	Y39	Z39	X40	Y40	Z40	X41	Y41	Z41
																																																																																																																												
23	0.743	233.52177	1654.77661	-1995.53406	235.77744	1639.21356	-2130.49789	102.0269	1650.7933	-2001.49963	108.7247	1634.05457	-2128.83408	250.55279	1395.24414	-2037.53113	107.42796	1393.39478	-2037.86392	242.67101	1440.27237	-2155.48325	93.49731	1447.47375	-2149.54086	166.02293	1283.96896	-2207.66846	173.13778	1327.90359	-1982.96783	168.9147	1245.72929	-1934.26453	363.20591	1412.93076	-2114.039	404.48799	1198.95332	-2126.08353	391.3979	1089.55795	-2138.25897	431.49929	987.35985	-2110.29037	394.05663	852.78915	-2024.65561	448.77716	844.43527	-2076.60202	457.81227	805.24361	-2024.54391	0.87969	1418.55896	-2106.23901	-26.94757	1187.66121	-2162.54059	-67.03076	1090.88669	-2119.88617	-62.163	977.76855	-2124.50226	-92.62567	839.79866	-2077.78809	-116.24891	807.19322	-2024.78531	296.69996	975.86899	-1985.62546	16.20963	974.37317	-2007.04224	248.8821	1043.65646	-2153.79944	73.43556	1047.96425	-2167.43484	299.74365	676.67587	-2154.54926	282.90812	505.47817	-2079.5018	-62.1602	856.97365	-2015.16006	276.48966	307.95334	-2084.53629	270.50655	124.2105	-2135.88013	230.83334	75.42005	-2198.83011	243.2016	86.64923	-2001.93695	14.37279	723.65067	-2164.3364	35.14979	563.40527	-2061.85379	87.04468	375.45433	-2078.77457	40.54927	123.26595	-2131.9281	83.50628	62.08261	-2203.75549	55.67944	78.90621	-2011.89926
24	0.777	233.21104	1654.40125	-1995.41702	235.35412	1639.28543	-2130.48355	101.77664	1650.61874	-2001.29303	108.29085	1634.26483	-2128.71536	250.05672	1395.25497	-2037.66098	106.98961	1393.42972	-2038.16528	242.29681	1440.05493	-2155.67978	93.13978	1447.32117	-2149.95453	165.75928	1283.72574	-2207.83142	172.61953	1328.0101	-1982.96097	168.57901	1245.94353	-1934.3425	362.63351	1412.96799	-2114.31366	404.4997	1198.65372	-2124.55978	391.47926	1089.26804	-2136.16425	431.9595	987.49878	-2109.55902	394.86771	851.39526	-2025.35172	449.80022	844.11034	-2077.70859	459.22626	804.3943	-2026.17477	0.4526	1418.45779	-2106.62476	-27.27934	1187.4308	-2162.47681	-67.37782	1090.7177	-2119.65698	-62.50915	977.64709	-2124.12033	-92.93618	839.73289	-2077.35062	-116.80037	807.25044	-2024.25522	296.4249	975.98793	-1985.49774	15.93255	974.42894	-2006.7804	248.55743	1043.58154	-2153.67691	73.04633	1047.86346	-2167.28363	299.35614	676.73843	-2154.47388	282.64555	505.45128	-2079.39865	-62.62604	857.03026	-2014.58115	276.40673	307.95959	-2084.50851	270.40707	124.14491	-2135.48004	230.83429	75.43851	-2198.83896	243.18008	86.6545	-2001.92993	14.12752	723.63884	-2164.04617	35.02709	563.37566	-2061.59103	86.96656	375.45643	-2078.64288	40.56272	123.26389	-2131.84967	83.51912	62.08632	-2203.73306	55.69365	78.90784	-2011.89133
25	0.81	232.97979	1654.17648	-1995.22095	235.04011	1639.29123	-2130.40009	101.56405	1650.5603	-2001.07681	107.98785	1634.40933	-2128.50189	249.6484	1395.31296	-2037.62054	106.55918	1393.4433	-2038.31482	242.00785	1439.98825	-2155.59113	92.78673	1447.26486	-2150.0769	165.56236	1283.63098	-2207.87964	172.12952	1328.06686	-1982.90787	168.10715	1246.00815	-1934.1745	362.35798	1412.93854	-2113.84491	404.31297	1198.53905	-2123.26508	391.27316	1089.18564	-2134.63165	431.70128	987.52151	-2108.85468	394.47048	850.62645	-2026.08459	449.49203	843.86642	-2078.16162	458.89488	803.7648	-2027.05307	0.09204	1418.36853	-2106.8396	-27.54149	1187.23038	-2162.41379	-67.61925	1090.55336	-2119.47784	-62.6878	977.42538	-2123.68729	-93.25625	839.74289	-2076.48849	-117.00235	807.39319	-2023.34259	296.18801	975.98152	-1985.40787	15.64151	974.50577	-2006.37772	248.20095	1043.47733	-2153.63373	72.68746	1047.77267	-2167.1199	298.91964	676.73859	-2154.31671	282.44457	505.42122	-2079.45892	-62.83713	857.13135	-2013.81775	276.3674	308.00415	-2084.54666	270.42902	124.31161	-2135.70526	230.77894	75.42567	-2198.85788	243.17968	86.65397	-2001.93008	13.79003	723.57193	-2163.71948	34.9039	563.33611	-2061.42944	86.88504	375.43739	-2078.64777	40.50805	123.2687	-2131.84814	83.49854	62.0473	-2203.70163	55.69158	78.88649	-2011.88385
26	0.843	232.78423	1654.11758	-1995.04105	234.75769	1639.26575	-2130.159	101.33677	1650.48233	-2000.81085	107.73242	1634.37225	-2128.17963	249.34683	1395.40298	-2037.37061	106.27269	1393.4433	-2038.28979	241.77353	1439.98337	-2155.33813	92.56222	1447.21756	-2149.98077	165.45544	1283.63754	-2207.7507	171.87683	1328.09097	-1982.73544	167.83106	1246.0424	-1934.03625	362.16717	1413.0806	-2113.58795	403.92189	1198.64548	-2122.491	390.70393	1089.29466	-2134.05823	430.75665	987.47749	-2108.17337	393.07201	850.58067	-2026.03027	448.12271	843.76518	-2077.99179	457.09435	803.51593	-2026.9574	-0.12596	1418.25424	-2106.73874	-27.7493	1187.12746	-2162.38037	-67.73423	1090.44174	-2119.39224	-62.77075	977.21161	-2123.19214	-93.31012	839.78851	-2075.63705	-116.80905	807.48871	-2022.173	295.93975	976.00616	-1985.37857	15.62224	974.48784	-2006.21216	247.89738	1043.35327	-2153.58017	72.41311	1047.61818	-2166.96884	298.74741	676.8103	-2154.44443	282.2274	505.41504	-2079.45206	-62.64986	857.41386	-2012.90878	276.29919	308.03883	-2084.56619	270.38618	124.27925	-2135.96466	230.7369	75.42306	-2198.82706	243.16706	86.62263	-2001.91788	13.45326	723.57513	-2163.45734	34.70602	563.30269	-2061.34354	86.66018	375.40672	-2078.63434	40.46027	123.20391	-2131.82953	83.49601	62.05181	-2203.70331	55.68564	78.8991	-2011.88522
27	0.877	232.69247	1654.02359	-1994.71359	234.49873	1639.23538	-2129.77432	101.20671	1650.41428	-2000.34714	107.43761	1634.44763	-2127.83127	249.07921	1395.5101	-2036.97937	106.08373	1393.46298	-2038.05099	241.63494	1440.04425	-2154.93439	92.38257	1447.26639	-2149.76227	165.38424	1283.7619	-2207.61475	171.64999	1328.11417	-1982.49893	167.60201	1245.96245	-1933.84903	362.11983	1413.16605	-2112.94785	403.27877	1198.90381	-2122.54272	389.96334	1089.63753	-2134.78622	429.52488	987.51778	-2108.2814	390.52837	850.89432	-2025.86517	445.79411	843.61259	-2077.38586	454.35406	803.55156	-2026.13907	-0.29237	1418.22388	-2106.59073	-27.90862	1187.11922	-2162.22839	-67.81796	1090.36057	-2119.14902	-62.76527	977.1315	-2122.6387	-93.0337	839.82445	-2074.30618	-116.37837	807.67311	-2020.89401	295.68832	975.97504	-1985.19409	15.44251	974.48128	-2006.04782	247.6696	1043.22342	-2153.52127	72.15413	1047.48848	-2166.83044	298.47958	676.83372	-2154.36111	282.09127	505.35645	-2079.47205	-62.21338	857.67311	-2011.85303	276.22826	307.99259	-2084.57336	269.91095	124.5089	-2135.22583	230.71333	75.40087	-2198.84689	243.18888	86.63062	-2001.92917	13.14811	723.55972	-2163.28812	34.53639	563.25043	-2061.30875	86.51437	375.43037	-2078.6676	40.4401	123.21053	-2131.83716	83.48569	62.06635	-2203.71689	55.69238	78.89799	-2011.87943
28	0.91	232.51062	1653.88199	-1994.25079	234.31742	1639.37149	-2129.46854	101.10373	1650.41351	-1999.90265	107.27766	1634.67636	-2127.4118	248.87537	1395.63583	-2036.55624	105.87565	1393.57376	-2037.7861	241.61634	1440.11765	-2154.50836	92.27557	1447.37625	-2149.5163	165.35461	1283.992	-2207.3674	171.44001	1328.16879	-1982.09625	167.2979	1245.94894	-1933.57941	361.81793	1413.01193	-2111.98532	402.54559	1199.3734	-2123.37738	389.22707	1090.12978	-2136.66946	428.10165	987.51549	-2108.87939	387.39395	851.9899	-2025.73959	442.89841	843.57407	-2076.31516	451.15498	803.99437	-2025.05569	-0.44705	1418.24799	-2106.33377	-28.07089	1187.15866	-2162.00851	-67.85779	1090.46646	-2118.75809	-62.81123	977.15637	-2122.01172	-92.74553	839.94766	-2073.40332	-115.87562	807.85713	-2019.62982	295.39463	975.93552	-1984.9408	15.33943	974.60754	-2005.91064	247.53613	1043.1398	-2153.33496	71.99032	1047.40456	-2166.71051	298.25573	676.86295	-2154.25949	282.01168	505.41737	-2079.50684	-61.60992	857.98897	-2010.92316	276.18092	308.00808	-2084.59106	270.10574	124.0703	-2135.06012	230.68947	75.41093	-2198.82538	243.1913	86.62802	-2001.88004	12.96857	723.5173	-2163.12698	34.33141	563.19481	-2061.27045	86.42385	375.4483	-2078.69064	40.38917	123.22351	-2131.8985	83.45891	62.11986	-2203.70087	55.70272	78.88256	-2011.86676
29	0.943	232.66495	1653.74496	-1993.84293	234.31868	1639.50821	-2128.91769	101.08315	1650.46051	-1999.4075	107.25605	1634.92752	-2126.8866	248.69963	1395.82123	-2036.00342	105.67192	1393.67477	-2037.51602	241.46776	1440.2887	-2153.96255	92.12879	1447.46109	-2149.24545	165.29564	1284.18076	-2207.08405	171.11433	1328.27744	-1981.65344	166.90214	1245.99861	-1933.20343	361.75873	1413.30307	-2111.45248	401.78967	1199.89822	-2125.13748	388.29727	1090.75111	-2139.45496	426.62628	987.53754	-2110.1947	384.54105	853.22319	-2025.73898	440.03952	843.82858	-2075.3064	447.90829	804.85291	-2023.70987	-0.62252	1418.2843	-2106.15524	-28.23959	1187.20634	-2161.76498	-68.05671	1090.51933	-2118.35358	-62.97075	977.15912	-2121.34354	-92.83455	840.10849	-2072.36496	-115.66018	807.97096	-2018.46558	295.0532	975.74883	-1984.50958	15.07988	974.45091	-2005.80505	247.45281	1043.03368	-2152.98615	71.87702	1047.3317	-2166.6124	298.02906	676.90659	-2154.10156	281.85904	505.40066	-2079.67377	-61.67089	858.22792	-2010.03662	276.09463	308.08332	-2084.63669	270.2256	124.45902	-2135.65521	230.64474	75.43891	-2198.76205	243.16309	86.58866	-2001.8457	12.87499	723.50632	-2163.10715	34.2942	563.17699	-2061.23383	86.54099	375.40638	-2078.61465	40.46473	123.26235	-2131.86035	83.45842	62.14192	-2203.68454	55.7414	78.86075	-2011.82159
30	0.977	232.59111	1653.59222	-1993.28217	234.3824	1639.54788	-2128.50006	101.2251	1650.50079	-1998.88275	107.29919	1635.17395	-2126.43555	248.4882	1396.00571	-2035.44647	105.44397	1393.84583	-2037.26349	241.30932	1440.43411	-2153.4613	92.00616	1447.53265	-2149.01886	165.29902	1284.29459	-2206.83411	170.81532	1328.42804	-1981.36353	166.56218	1246.08604	-1932.99393	361.47713	1413.35678	-2110.80124	401.16413	1200.44647	-2127.09015	387.29515	1091.3382	-2142.1347	425.21523	987.52853	-2111.61682	382.0195	854.70268	-2025.86685	437.58133	844.16245	-2074.81964	445.22999	805.74959	-2023.15018	-0.801	1418.32413	-2106.00296	-28.52161	1187.15645	-2161.43082	-68.331	1090.57907	-2117.90543	-63.26666	977.15973	-2120.65048	-93.16957	840.30876	-2071.4061	-115.89308	808.19466	-2017.45636	294.84266	975.74142	-1983.47397	14.69802	974.37668	-2005.89813	247.41859	1043.01674	-2152.59979	71.84272	1047.34192	-2166.6861	297.87886	677.00409	-2153.97461	281.57875	505.33241	-2079.76334	-61.79403	858.51471	-2009.12872	276.05425	308.21011	-2084.7435	270.13193	124.48133	-2135.66696	230.60041	75.43578	-2198.76755	243.13656	86.56599	-2001.77994	12.87805	723.45627	-2163.23486	34.26816	563.15086	-2061.05759	86.64408	375.3896	-2078.32306	40.55165	123.27168	-2131.77734	83.49341	62.20677	-2203.63434	55.78208	78.83258	-2011.77231
31	1.01	232.53977	1653.50922	-1992.77802	234.4768	1639.55261	-2128.04153	101.22638	1650.66208	-1998.50555	107.38692	1635.39108	-2126.01517	248.27053	1396.12	-2035.02274	105.25498	1393.95615	-2037.01202	241.12282	1440.62424	-2153.08517	91.87101	1447.66541	-2148.77029	165.22106	1284.45343	-2206.67847	170.59044	1328.54034	-1981.15845	166.26467	1246.15578	-1932.82303	361.39961	1413.44025	-2110.20294	400.6707	1200.69092	-2128.1131	386.34594	1091.68602	-2143.68286	424.1888	987.74681	-2112.92068	380.19123	855.19928	-2026.53854	435.85487	844.34464	-2075.16312	443.46287	806.17416	-2023.43658	-0.97125	1418.41461	-2105.82718	-28.85399	1187.14584	-2161.02951	-68.74709	1090.65102	-2117.32864	-63.78167	977.30942	-2120.04349	-93.84154	840.67673	-2070.62057	-116.57063	808.5173	-2016.63452	294.27954	975.54962	-1982.70966	14.25721	974.45419	-2006.14334	247.46765	1043.01895	-2152.23846	71.93633	1047.35962	-2166.89117	297.813	677.06451	-2153.8887	281.45245	505.27412	-2080.02289	-62.45666	858.78967	-2008.40118	275.95297	308.22229	-2084.79568	270.11433	124.47464	-2135.70602	230.56223	75.45441	-2198.76221	243.0732	86.54284	-2001.70074	13.04283	723.46039	-2163.38943	34.1954	563.23036	-2060.91064	86.81392	375.40775	-2078.21945	40.60291	123.29848	-2131.72653	83.49113	62.26351	-2203.58932	55.79382	78.83708	-2011.74652
